<svg xmlns="http://www.w3.org/2000/svg" xmlns:xlink="http://www.w3.org/1999/xlink" width="85" zoomAndPan="magnify" viewBox="0 0 63.75 63.749997" height="85" preserveAspectRatio="xMidYMid meet" version="1.2"><defs><clipPath id="c14e80dafa"><path d="M 3.082031 1.007812 L 51 1.007812 L 51 58.496094 L 3.082031 58.496094 Z M 3.082031 1.007812 "/></clipPath><clipPath id="b19a0c42fc"><path d="M 22 6 L 60.328125 6 L 60.328125 53 L 22 53 Z M 22 6 "/></clipPath><clipPath id="bb74ac0587"><path d="M 25.433594 15.136719 L 39.925781 15.136719 L 39.925781 23.453125 L 25.433594 23.453125 Z M 25.433594 15.136719 "/></clipPath><clipPath id="7db199b3e7"><path d="M 0.710938 22.636719 L 62.789062 22.636719 L 62.789062 39.710938 L 0.710938 39.710938 Z M 0.710938 22.636719 "/></clipPath><clipPath id="c16dfb42c7"><path d="M 0.710938 0.636719 L 62.789062 0.636719 L 62.789062 17.710938 L 0.710938 17.710938 Z M 0.710938 0.636719 "/></clipPath><clipPath id="ebdedafed2"><rect x="0" width="63" y="0" height="18"/></clipPath><clipPath id="39578d46ea"><path d="M 19.890625 36.882812 L 32 36.882812 L 32 47.8125 L 19.890625 47.8125 Z M 19.890625 36.882812 "/></clipPath><clipPath id="a4ad301ff6"><path d="M 0.964844 0.882812 L 12.796875 0.882812 L 12.796875 11.8125 L 0.964844 11.8125 Z M 0.964844 0.882812 "/></clipPath><clipPath id="68f070864a"><rect x="0" width="13" y="0" height="12"/></clipPath><clipPath id="cf31c847cd"><path d="M 32 36.882812 L 44.488281 36.882812 L 44.488281 47.8125 L 32 47.8125 Z M 32 36.882812 "/></clipPath><clipPath id="2e94fd1920"><path d="M 31 40 L 34 40 L 34 43 L 31 43 Z M 31 40 "/></clipPath><clipPath id="ba46b54150"><path d="M 32.1875 40.089844 L 33.417969 41.242188 L 32.261719 42.472656 L 31.035156 41.320312 Z M 32.1875 40.089844 "/></clipPath><clipPath id="b02e4daa83"><path d="M 32.800781 40.664062 C 32.460938 40.347656 31.929688 40.363281 31.609375 40.703125 C 31.292969 41.042969 31.308594 41.578125 31.648438 41.894531 L 32.261719 42.472656 L 32.839844 41.859375 C 33.160156 41.519531 33.140625 40.984375 32.800781 40.664062 Z M 32.800781 40.664062 "/></clipPath><clipPath id="936e123a5d"><path d="M 0.078125 0.3125 L 2.230469 0.3125 L 2.230469 2.703125 L 0.078125 2.703125 Z M 0.078125 0.3125 "/></clipPath><clipPath id="ed868f8aff"><path d="M 1.1875 0.0898438 L 2.417969 1.242188 L 1.261719 2.472656 L 0.0351562 1.320312 Z M 1.1875 0.0898438 "/></clipPath><clipPath id="4c77d7db89"><path d="M 1.800781 0.664062 C 1.460938 0.347656 0.929688 0.363281 0.609375 0.703125 C 0.292969 1.042969 0.308594 1.578125 0.648438 1.894531 L 1.261719 2.472656 L 1.839844 1.859375 C 2.160156 1.519531 2.140625 0.984375 1.800781 0.664062 Z M 1.800781 0.664062 "/></clipPath><clipPath id="0042154ca7"><rect x="0" width="3" y="0" height="3"/></clipPath><clipPath id="2b8e25d97b"><rect x="0" width="63" y="0" height="59"/></clipPath></defs><g id="95cdf56a61"><g transform="matrix(1,0,0,1,-0.000000000000000056,2)"><g clip-path="url(#2b8e25d97b)"><g clip-rule="nonzero" clip-path="url(#c14e80dafa)"><path style=" stroke:none;fill-rule:nonzero;fill:#5300a0;fill-opacity:1;" d="M 37.722656 55.097656 C 23.71875 55.097656 12.371094 43.75 12.371094 29.75 C 12.371094 15.746094 23.71875 4.398438 37.722656 4.398438 C 42.265625 4.398438 46.523438 5.597656 50.210938 7.691406 C 45.226562 3.527344 38.808594 1.019531 31.804688 1.019531 C 15.9375 1.019531 3.074219 13.882812 3.074219 29.75 C 3.074219 45.617188 15.9375 58.480469 31.804688 58.480469 C 38.808594 58.480469 45.226562 55.96875 50.210938 51.804688 C 46.523438 53.898438 42.265625 55.097656 37.722656 55.097656 "/></g><g clip-rule="nonzero" clip-path="url(#b19a0c42fc)"><path style=" stroke:none;fill-rule:nonzero;fill:#ffffff;fill-opacity:1;" d="M 32.738281 49.992188 C 43.921875 49.992188 52.984375 40.929688 52.984375 29.75 C 52.984375 18.566406 43.921875 9.503906 32.738281 9.503906 C 29.113281 9.503906 25.710938 10.464844 22.765625 12.132812 C 26.746094 8.808594 31.871094 6.804688 37.464844 6.804688 C 50.136719 6.804688 60.40625 17.078125 60.40625 29.75 C 60.40625 42.421875 50.136719 52.691406 37.464844 52.691406 C 31.871094 52.691406 26.746094 50.6875 22.765625 47.363281 C 25.710938 49.035156 29.113281 49.992188 32.738281 49.992188 "/></g><g clip-rule="nonzero" clip-path="url(#bb74ac0587)"><path style=" stroke:none;fill-rule:evenodd;fill:#ffffff;fill-opacity:1;" d="M 39.964844 17.980469 L 39.566406 18.351562 L 39.625 18.605469 C 37.71875 20.722656 36.457031 21.722656 36.089844 21.191406 C 35.792969 20.179688 35.941406 19.175781 36.402344 18.183594 L 36.796875 18 L 36.871094 17.128906 L 36.269531 17.761719 L 36.394531 18.1875 C 35.894531 19.023438 35.359375 19.765625 34.746094 20.304688 C 34.097656 20.875 33.902344 20.957031 33.484375 20.058594 C 33.175781 19.394531 33.070312 18.503906 32.863281 17.726562 L 33.390625 17.109375 L 32.699219 15.140625 L 32.007812 17.109375 L 32.535156 17.726562 C 32.328125 18.503906 32.222656 19.394531 31.914062 20.058594 C 31.496094 20.957031 31.300781 20.875 30.652344 20.304688 C 30.039062 19.765625 29.503906 19.023438 29.003906 18.183594 L 29.128906 17.761719 L 28.527344 17.128906 L 28.601562 18 L 28.996094 18.183594 C 29.457031 19.175781 29.605469 20.179688 29.308594 21.191406 C 28.941406 21.722656 27.683594 20.722656 25.773438 18.605469 L 25.832031 18.351562 L 25.433594 17.980469 L 25.511719 18.519531 L 25.746094 18.613281 L 28.46875 23.347656 L 27.632812 21.046875 C 27.648438 21.0625 27.664062 21.074219 27.683594 21.089844 C 28.109375 21.429688 28.855469 21.984375 29.417969 21.652344 C 29.515625 21.597656 29.597656 21.523438 29.660156 21.429688 L 29.699219 21.375 L 29.714844 21.308594 C 29.832031 20.914062 29.882812 20.523438 29.882812 20.140625 C 30.039062 20.308594 30.203125 20.472656 30.375 20.625 C 30.660156 20.878906 31.023438 21.210938 31.441406 21.152344 C 31.890625 21.085938 32.125 20.605469 32.296875 20.238281 C 32.488281 19.828125 32.601562 19.375 32.699219 18.929688 C 32.796875 19.375 32.910156 19.828125 33.101562 20.238281 C 33.273438 20.605469 33.507812 21.085938 33.957031 21.152344 C 34.375 21.210938 34.738281 20.878906 35.023438 20.625 C 35.195312 20.472656 35.359375 20.308594 35.515625 20.140625 C 35.515625 20.523438 35.566406 20.914062 35.683594 21.308594 L 35.699219 21.375 L 35.738281 21.429688 C 35.804688 21.523438 35.882812 21.597656 35.980469 21.652344 C 36.542969 21.984375 37.289062 21.429688 37.714844 21.089844 C 37.734375 21.074219 37.75 21.0625 37.765625 21.046875 L 37.035156 23.179688 L 39.652344 18.613281 L 39.886719 18.519531 Z M 39.964844 17.980469 "/></g><path style=" stroke:none;fill-rule:evenodd;fill:#ffffff;fill-opacity:1;" d="M 31.273438 19.738281 C 31.320312 19.960938 31.375 20.183594 31.449219 20.398438 C 31.5 20.335938 31.566406 20.226562 31.65625 20.042969 C 31.519531 19.542969 31.445312 18.976562 31.273438 18.519531 C 31.082031 19.011719 31.011719 19.636719 30.855469 20.164062 C 30.925781 20.226562 31.015625 20.304688 31.105469 20.371094 C 31.171875 20.164062 31.226562 19.949219 31.273438 19.738281 Z M 31.273438 19.738281 "/><path style=" stroke:none;fill-rule:evenodd;fill:#ffffff;fill-opacity:1;" d="M 34.121094 19.738281 C 34.167969 19.949219 34.222656 20.167969 34.289062 20.371094 C 34.378906 20.308594 34.46875 20.226562 34.542969 20.167969 C 34.382812 19.640625 34.3125 19.015625 34.121094 18.519531 C 33.949219 18.976562 33.875 19.539062 33.738281 20.039062 C 33.828125 20.21875 33.894531 20.332031 33.945312 20.394531 C 34.019531 20.183594 34.074219 19.960938 34.121094 19.738281 Z M 34.121094 19.738281 "/><path style=" stroke:none;fill-rule:evenodd;fill:#ffffff;fill-opacity:1;" d="M 36.640625 21.015625 C 36.691406 20.675781 36.78125 20.320312 36.789062 20.003906 C 36.589844 20.214844 36.414062 20.496094 36.230469 20.753906 C 36.25 20.847656 36.269531 20.941406 36.292969 21.035156 C 36.351562 20.960938 36.402344 20.886719 36.457031 20.8125 C 36.4375 20.902344 36.421875 20.996094 36.410156 21.089844 C 36.46875 21.082031 36.542969 21.058594 36.640625 21.015625 Z M 36.640625 21.015625 "/><path style=" stroke:none;fill-rule:evenodd;fill:#ffffff;fill-opacity:1;" d="M 29.167969 20.753906 C 28.984375 20.496094 28.808594 20.214844 28.609375 20.003906 C 28.617188 20.320312 28.707031 20.675781 28.757812 21.015625 C 28.855469 21.058594 28.929688 21.082031 28.988281 21.089844 C 28.972656 20.996094 28.960938 20.902344 28.941406 20.8125 C 28.996094 20.886719 29.046875 20.960938 29.105469 21.035156 C 29.128906 20.941406 29.148438 20.847656 29.167969 20.753906 Z M 29.167969 20.753906 "/><g clip-rule="nonzero" clip-path="url(#7db199b3e7)"><g transform="matrix(1,0,0,1,-0.000000000000000056,22)"><g id="9cde7eb077" clip-path="url(#ebdedafed2)"><g clip-rule="nonzero" clip-path="url(#c16dfb42c7)"><path style=" stroke:none;fill-rule:nonzero;fill:#000000;fill-opacity:1;" d="M 0.710938 0.636719 L 62.796875 0.636719 L 62.796875 17.710938 L 0.710938 17.710938 Z M 0.710938 0.636719 "/></g></g></g></g><g style="fill:#5300a0;fill-opacity:1;"><g transform="translate(3.036451, 34.00948)"><path style="stroke:none" d="M 7.171875 -0.09375 L 7.25 -0.09375 L 7.25 0 L 4.15625 0 L 4.15625 -0.09375 L 4.25 -0.09375 C 4.382812 -0.09375 4.484375 -0.132812 4.546875 -0.21875 C 4.617188 -0.3125 4.65625 -0.394531 4.65625 -0.46875 C 4.65625 -0.550781 4.640625 -0.628906 4.609375 -0.703125 L 4.140625 -1.90625 L 1.875 -1.90625 L 1.359375 -0.703125 C 1.328125 -0.617188 1.3125 -0.539062 1.3125 -0.46875 C 1.3125 -0.394531 1.347656 -0.3125 1.421875 -0.21875 C 1.492188 -0.132812 1.601562 -0.09375 1.75 -0.09375 L 1.828125 -0.09375 L 1.828125 0 L -0.25 0 L -0.25 -0.09375 L -0.171875 -0.09375 C -0.0234375 -0.09375 0.117188 -0.140625 0.265625 -0.234375 C 0.421875 -0.328125 0.546875 -0.460938 0.640625 -0.640625 L 2.890625 -5.71875 C 3.191406 -6.351562 3.351562 -6.773438 3.375 -6.984375 L 3.453125 -6.984375 L 6.34375 -0.65625 C 6.4375 -0.46875 6.554688 -0.328125 6.703125 -0.234375 C 6.859375 -0.140625 7.015625 -0.09375 7.171875 -0.09375 Z M 2.03125 -2.3125 L 3.96875 -2.3125 L 3.03125 -4.703125 Z M 2.03125 -2.3125 "/></g></g><g style="fill:#5300a0;fill-opacity:1;"><g transform="translate(9.98588, 34.00948)"><path style="stroke:none" d="M 3.46875 0 L 0.40625 0 L 0.40625 -0.09375 L 0.53125 -0.09375 C 0.769531 -0.09375 0.945312 -0.191406 1.0625 -0.390625 C 1.113281 -0.484375 1.144531 -0.585938 1.15625 -0.703125 L 1.15625 -6.09375 C 1.144531 -6.257812 1.078125 -6.398438 0.953125 -6.515625 C 0.835938 -6.628906 0.695312 -6.6875 0.53125 -6.6875 L 0.40625 -6.6875 L 0.40625 -6.796875 L 3.21875 -6.796875 C 3.96875 -6.796875 4.5625 -6.660156 5 -6.390625 C 5.445312 -6.117188 5.675781 -5.703125 5.6875 -5.140625 C 5.675781 -4.847656 5.613281 -4.597656 5.5 -4.390625 C 5.289062 -3.984375 4.957031 -3.753906 4.5 -3.703125 C 4.988281 -3.648438 5.394531 -3.460938 5.71875 -3.140625 C 6.039062 -2.816406 6.203125 -2.398438 6.203125 -1.890625 C 6.203125 -1.285156 5.957031 -0.816406 5.46875 -0.484375 C 4.988281 -0.160156 4.320312 0 3.46875 0 Z M 4.140625 -5 C 4.128906 -5.914062 3.710938 -6.375 2.890625 -6.375 L 2.609375 -6.375 L 2.609375 -0.453125 L 3.0625 -0.453125 C 3.0625 -0.453125 3.066406 -0.453125 3.078125 -0.453125 C 3.523438 -0.453125 3.878906 -0.578125 4.140625 -0.828125 C 4.410156 -1.085938 4.546875 -1.484375 4.546875 -2.015625 C 4.546875 -2.546875 4.394531 -2.941406 4.09375 -3.203125 C 3.789062 -3.460938 3.40625 -3.59375 2.9375 -3.59375 L 2.9375 -3.671875 C 3.269531 -3.671875 3.550781 -3.78125 3.78125 -4 C 4.007812 -4.21875 4.128906 -4.550781 4.140625 -5 Z M 4.140625 -5 "/></g></g><g style="fill:#5300a0;fill-opacity:1;"><g transform="translate(16.527661, 34.00948)"><path style="stroke:none" d="M 7.671875 -6.6875 L 7.5 -6.6875 C 7.363281 -6.6875 7.242188 -6.644531 7.140625 -6.5625 C 7.046875 -6.476562 7 -6.367188 7 -6.234375 L 7 -2.453125 C 7 -1.660156 6.75 -1.03125 6.25 -0.5625 C 5.75 -0.09375 5.066406 0.140625 4.203125 0.140625 C 3.179688 0.140625 2.394531 -0.0859375 1.84375 -0.546875 C 1.300781 -1.003906 1.03125 -1.632812 1.03125 -2.4375 L 1.03125 -6.203125 C 1.03125 -6.398438 0.945312 -6.546875 0.78125 -6.640625 C 0.695312 -6.671875 0.613281 -6.6875 0.53125 -6.6875 L 0.375 -6.6875 L 0.375 -6.796875 L 3.15625 -6.796875 L 3.15625 -6.6875 L 3.015625 -6.6875 C 2.867188 -6.6875 2.742188 -6.644531 2.640625 -6.5625 C 2.546875 -6.476562 2.5 -6.367188 2.5 -6.234375 L 2.5 -2.515625 C 2.5 -1.835938 2.664062 -1.296875 3 -0.890625 C 3.332031 -0.492188 3.789062 -0.296875 4.375 -0.296875 C 4.96875 -0.296875 5.4375 -0.484375 5.78125 -0.859375 C 6.125 -1.234375 6.300781 -1.742188 6.3125 -2.390625 L 6.3125 -6.234375 C 6.289062 -6.421875 6.203125 -6.554688 6.046875 -6.640625 C 5.960938 -6.671875 5.878906 -6.6875 5.796875 -6.6875 L 5.640625 -6.6875 L 5.640625 -6.796875 L 7.671875 -6.796875 Z M 7.671875 -6.6875 "/></g></g><g style="fill:#5300a0;fill-opacity:1;"><g transform="translate(24.496212, 34.00948)"><path style="stroke:none" d=""/></g></g><g style="fill:#5300a0;fill-opacity:1;"><g transform="translate(26.922687, 34.00948)"><path style="stroke:none" d="M 0.484375 -0.90625 C 0.484375 -1.363281 0.582031 -1.757812 0.78125 -2.09375 L 0.875 -2.09375 C 0.863281 -2.039062 0.859375 -1.988281 0.859375 -1.9375 C 0.859375 -1.488281 1.019531 -1.097656 1.34375 -0.765625 C 1.664062 -0.429688 2.101562 -0.265625 2.65625 -0.265625 C 3.09375 -0.265625 3.429688 -0.367188 3.671875 -0.578125 C 3.910156 -0.785156 4.03125 -1.050781 4.03125 -1.375 C 4.03125 -1.5625 3.96875 -1.726562 3.84375 -1.875 C 3.726562 -2.019531 3.535156 -2.1875 3.265625 -2.375 L 1.578125 -3.484375 C 0.941406 -3.898438 0.625 -4.414062 0.625 -5.03125 C 0.625 -5.101562 0.632812 -5.171875 0.65625 -5.234375 C 0.6875 -5.742188 0.878906 -6.148438 1.234375 -6.453125 C 1.597656 -6.765625 2.082031 -6.921875 2.6875 -6.921875 C 3.039062 -6.921875 3.476562 -6.890625 4 -6.828125 L 4.625 -6.828125 L 4.5 -5.40625 L 4.390625 -5.40625 C 4.390625 -5.738281 4.265625 -6.003906 4.015625 -6.203125 C 3.765625 -6.410156 3.4375 -6.515625 3.03125 -6.515625 C 2.519531 -6.515625 2.15625 -6.363281 1.9375 -6.0625 C 1.8125 -5.90625 1.75 -5.753906 1.75 -5.609375 C 1.75 -5.460938 1.78125 -5.335938 1.84375 -5.234375 C 1.9375 -5.066406 2.132812 -4.882812 2.4375 -4.6875 L 4.28125 -3.484375 C 4.863281 -3.097656 5.15625 -2.597656 5.15625 -1.984375 C 5.15625 -1.296875 4.921875 -0.769531 4.453125 -0.40625 C 3.984375 -0.0390625 3.363281 0.140625 2.59375 0.140625 C 2.15625 0.140625 1.75 0.0859375 1.375 -0.015625 C 1 -0.128906 0.722656 -0.273438 0.546875 -0.453125 C 0.503906 -0.578125 0.484375 -0.726562 0.484375 -0.90625 Z M 0.484375 -0.90625 "/></g></g><g style="fill:#5300a0;fill-opacity:1;"><g transform="translate(32.532703, 34.00948)"><path style="stroke:none" d="M 7.171875 -0.09375 L 7.25 -0.09375 L 7.25 0 L 4.15625 0 L 4.15625 -0.09375 L 4.25 -0.09375 C 4.382812 -0.09375 4.484375 -0.132812 4.546875 -0.21875 C 4.617188 -0.3125 4.65625 -0.394531 4.65625 -0.46875 C 4.65625 -0.550781 4.640625 -0.628906 4.609375 -0.703125 L 4.140625 -1.90625 L 1.875 -1.90625 L 1.359375 -0.703125 C 1.328125 -0.617188 1.3125 -0.539062 1.3125 -0.46875 C 1.3125 -0.394531 1.347656 -0.3125 1.421875 -0.21875 C 1.492188 -0.132812 1.601562 -0.09375 1.75 -0.09375 L 1.828125 -0.09375 L 1.828125 0 L -0.25 0 L -0.25 -0.09375 L -0.171875 -0.09375 C -0.0234375 -0.09375 0.117188 -0.140625 0.265625 -0.234375 C 0.421875 -0.328125 0.546875 -0.460938 0.640625 -0.640625 L 2.890625 -5.71875 C 3.191406 -6.351562 3.351562 -6.773438 3.375 -6.984375 L 3.453125 -6.984375 L 6.34375 -0.65625 C 6.4375 -0.46875 6.554688 -0.328125 6.703125 -0.234375 C 6.859375 -0.140625 7.015625 -0.09375 7.171875 -0.09375 Z M 2.03125 -2.3125 L 3.96875 -2.3125 L 3.03125 -4.703125 Z M 2.03125 -2.3125 "/></g></g><g style="fill:#5300a0;fill-opacity:1;"><g transform="translate(39.482131, 34.00948)"><path style="stroke:none" d="M 7.140625 -6.6875 L 7 -6.6875 C 6.800781 -6.6875 6.613281 -6.628906 6.4375 -6.515625 C 6.269531 -6.410156 6.132812 -6.28125 6.03125 -6.125 L 4.125 -3.078125 L 4.125 -0.703125 C 4.125 -0.535156 4.179688 -0.390625 4.296875 -0.265625 C 4.421875 -0.148438 4.566406 -0.09375 4.734375 -0.09375 L 4.859375 -0.09375 L 4.875 0 L 1.921875 0 L 1.921875 -0.09375 L 2.046875 -0.09375 C 2.210938 -0.09375 2.351562 -0.148438 2.46875 -0.265625 C 2.59375 -0.390625 2.660156 -0.535156 2.671875 -0.703125 L 2.671875 -3.09375 L 0.8125 -6.140625 C 0.71875 -6.296875 0.578125 -6.425781 0.390625 -6.53125 C 0.210938 -6.632812 0.03125 -6.6875 -0.15625 -6.6875 L -0.28125 -6.6875 L -0.28125 -6.796875 L 2.921875 -6.796875 L 2.921875 -6.6875 L 2.796875 -6.6875 C 2.660156 -6.6875 2.550781 -6.625 2.46875 -6.5 C 2.425781 -6.425781 2.40625 -6.351562 2.40625 -6.28125 C 2.40625 -6.21875 2.421875 -6.15625 2.453125 -6.09375 L 3.84375 -3.578125 L 5.296875 -6.09375 C 5.328125 -6.15625 5.34375 -6.21875 5.34375 -6.28125 C 5.34375 -6.351562 5.320312 -6.421875 5.28125 -6.484375 C 5.195312 -6.617188 5.082031 -6.6875 4.9375 -6.6875 L 4.828125 -6.6875 L 4.828125 -6.796875 L 7.140625 -6.796875 Z M 7.140625 -6.6875 "/></g></g><g style="fill:#5300a0;fill-opacity:1;"><g transform="translate(46.295676, 34.00948)"><path style="stroke:none" d="M 0.53125 -0.09375 C 0.695312 -0.09375 0.835938 -0.148438 0.953125 -0.265625 C 1.078125 -0.390625 1.144531 -0.535156 1.15625 -0.703125 L 1.15625 -6.109375 C 1.144531 -6.273438 1.097656 -6.398438 1.015625 -6.484375 C 0.859375 -6.617188 0.695312 -6.6875 0.53125 -6.6875 L 0.40625 -6.6875 L 0.40625 -6.796875 L 4.125 -6.796875 C 4.4375 -6.796875 4.695312 -6.816406 4.90625 -6.859375 C 5.113281 -6.910156 5.238281 -6.945312 5.28125 -6.96875 L 5.28125 -5.265625 L 5.1875 -5.28125 L 5.1875 -5.390625 C 5.1875 -5.785156 5.039062 -6.066406 4.75 -6.234375 C 4.601562 -6.316406 4.429688 -6.363281 4.234375 -6.375 L 2.609375 -6.375 L 2.609375 -3.546875 L 3.890625 -3.546875 C 4.128906 -3.554688 4.328125 -3.640625 4.484375 -3.796875 C 4.640625 -3.953125 4.71875 -4.148438 4.71875 -4.390625 L 4.71875 -4.46875 L 4.8125 -4.46875 L 4.8125 -2.234375 L 4.71875 -2.234375 L 4.71875 -2.3125 C 4.71875 -2.550781 4.640625 -2.75 4.484375 -2.90625 C 4.335938 -3.0625 4.144531 -3.140625 3.90625 -3.140625 L 2.609375 -3.140625 L 2.609375 -0.421875 L 3.875 -0.421875 C 4.351562 -0.421875 4.75 -0.554688 5.0625 -0.828125 C 5.382812 -1.097656 5.625 -1.484375 5.78125 -1.984375 L 5.875 -1.984375 L 5.4375 0 L 0.40625 0 L 0.40625 -0.09375 Z M 0.53125 -0.09375 "/></g></g><g style="fill:#5300a0;fill-opacity:1;"><g transform="translate(52.420103, 34.00948)"><path style="stroke:none" d="M 3.9375 -6.796875 C 5.070312 -6.796875 5.972656 -6.488281 6.640625 -5.875 C 7.304688 -5.269531 7.640625 -4.441406 7.640625 -3.390625 C 7.640625 -2.347656 7.304688 -1.519531 6.640625 -0.90625 C 5.972656 -0.300781 5.070312 0 3.9375 0 L 0.40625 0 L 0.40625 -0.09375 L 0.53125 -0.09375 C 0.695312 -0.09375 0.835938 -0.148438 0.953125 -0.265625 C 1.078125 -0.390625 1.144531 -0.535156 1.15625 -0.703125 L 1.15625 -6.140625 C 1.15625 -6.296875 1.09375 -6.425781 0.96875 -6.53125 C 0.84375 -6.632812 0.695312 -6.6875 0.53125 -6.6875 L 0.40625 -6.6875 L 0.40625 -6.796875 Z M 3.796875 -0.421875 C 4.265625 -0.421875 4.664062 -0.539062 5 -0.78125 C 5.34375 -1.019531 5.601562 -1.363281 5.78125 -1.8125 C 5.96875 -2.257812 6.0625 -2.75 6.0625 -3.28125 C 6.0625 -3.8125 6.007812 -4.257812 5.90625 -4.625 C 5.800781 -5 5.648438 -5.316406 5.453125 -5.578125 C 5.054688 -6.117188 4.503906 -6.390625 3.796875 -6.390625 L 2.609375 -6.390625 L 2.609375 -0.421875 Z M 3.796875 -0.421875 "/></g></g><g clip-rule="nonzero" clip-path="url(#39578d46ea)"><g transform="matrix(1,0,0,1,19,36)"><g id="bfd5825db9" clip-path="url(#68f070864a)"><g clip-rule="nonzero" clip-path="url(#a4ad301ff6)"><path style=" stroke:none;fill-rule:evenodd;fill:#ffffff;fill-opacity:1;" d="M 0.902344 0.882812 C 4.898438 3.761719 14.964844 3.695312 12.136719 11.796875 C 11.941406 11.355469 11.742188 10.914062 11.550781 10.472656 C 11.867188 10.167969 11.921875 9.332031 11.394531 9.3125 C 11.550781 9.523438 11.570312 10.261719 11.070312 10.078125 C 11.222656 9.378906 11.25 8.707031 11.195312 8.035156 C 11.109375 8.554688 11.183594 9.582031 10.523438 9.417969 C 10.820312 8.804688 10.933594 8.148438 11.011719 7.488281 C 10.742188 8.132812 10.542969 9.398438 9.734375 8.976562 C 10.195312 8.390625 10.523438 7.699219 10.742188 6.921875 C 10.328125 7.554688 9.621094 9.300781 8.8125 8.515625 C 9.542969 7.988281 10.117188 7.285156 10.714844 6.585938 C 9.207031 7.785156 8.957031 8.554688 7.324219 8.167969 C 8.449219 7.699219 9.484375 7.105469 10.398438 6.308594 C 8.476562 7.152344 7.449219 8.132812 5.675781 7.265625 C 7.269531 6.929688 8.765625 6.441406 10.136719 5.78125 C 9.160156 5.960938 3.925781 7.460938 3.851562 5.742188 C 5.914062 5.886719 7.804688 5.808594 9.476562 5.453125 C 7.941406 5.386719 1.949219 5.847656 2.332031 3.628906 C 4.636719 4.378906 6.914062 4.789062 9.179688 5.078125 C 6.507812 4.339844 1.085938 3.871094 0.902344 0.882812 "/></g></g></g></g><g clip-rule="nonzero" clip-path="url(#cf31c847cd)"><path style=" stroke:none;fill-rule:evenodd;fill:#ffffff;fill-opacity:1;" d="M 44.546875 36.882812 C 40.554688 39.761719 30.484375 39.695312 33.316406 47.796875 C 33.507812 47.355469 33.710938 46.914062 33.902344 46.472656 C 33.585938 46.167969 33.527344 45.332031 34.054688 45.3125 C 33.902344 45.523438 33.882812 46.261719 34.382812 46.078125 C 34.226562 45.378906 34.199219 44.707031 34.257812 44.035156 C 34.34375 44.554688 34.265625 45.582031 34.929688 45.417969 C 34.628906 44.804688 34.515625 44.148438 34.4375 43.488281 C 34.707031 44.132812 34.910156 45.398438 35.714844 44.976562 C 35.253906 44.390625 34.929688 43.699219 34.707031 42.921875 C 35.121094 43.554688 35.832031 45.300781 36.636719 44.515625 C 35.90625 43.988281 35.332031 43.285156 34.734375 42.585938 C 36.242188 43.785156 36.492188 44.554688 38.125 44.167969 C 37 43.699219 35.964844 43.105469 35.054688 42.308594 C 36.972656 43.152344 38 44.132812 39.777344 43.265625 C 38.183594 42.929688 36.683594 42.441406 35.3125 41.78125 C 36.292969 41.960938 41.523438 43.460938 41.601562 41.742188 C 39.535156 41.886719 37.644531 41.808594 35.976562 41.453125 C 37.511719 41.386719 43.5 41.847656 43.117188 39.628906 C 40.8125 40.378906 38.539062 40.789062 36.273438 41.078125 C 38.941406 40.339844 44.363281 39.871094 44.546875 36.882812 "/></g><g clip-rule="nonzero" clip-path="url(#2e94fd1920)"><g clip-rule="nonzero" clip-path="url(#ba46b54150)"><g clip-rule="nonzero" clip-path="url(#b02e4daa83)"><g transform="matrix(1,0,0,1,31,40)"><g id="58667942cb" clip-path="url(#0042154ca7)"><g clip-rule="nonzero" clip-path="url(#936e123a5d)"><g clip-rule="nonzero" clip-path="url(#ed868f8aff)"><g clip-rule="nonzero" clip-path="url(#4c77d7db89)"><path style=" stroke:none;fill-rule:nonzero;fill:#ffffff;fill-opacity:1;" d="M 1.1875 0.0898438 L 2.417969 1.242188 L 1.261719 2.472656 L 0.0351562 1.320312 Z M 1.1875 0.0898438 "/></g></g></g></g></g></g></g></g></g></g></g></svg>