<svg xmlns="http://www.w3.org/2000/svg" xmlns:xlink="http://www.w3.org/1999/xlink" width="120" zoomAndPan="magnify" viewBox="0 0 90 89.999999" height="120" preserveAspectRatio="xMidYMid meet" version="1.2"><defs><clipPath id="d68f8bb976"><path d="M 3.710938 3.710938 L 86.960938 3.710938 L 86.960938 86.960938 L 3.710938 86.960938 Z M 3.710938 3.710938 "/></clipPath></defs><g id="ed7a61b81d"><g clip-rule="nonzero" clip-path="url(#d68f8bb976)"><path style=" stroke:none;fill-rule:nonzero;fill:#543b79;fill-opacity:1;" d="M 80.023438 3.710938 L 10.648438 3.710938 C 6.820312 3.710938 3.710938 6.816406 3.710938 10.648438 L 3.710938 80.023438 C 3.710938 83.859375 6.820312 86.960938 10.648438 86.960938 L 80.023438 86.960938 C 83.855469 86.960938 86.960938 83.859375 86.960938 80.023438 L 86.960938 10.648438 C 86.960938 6.816406 83.855469 3.710938 80.023438 3.710938 Z M 65.5 62.171875 L 65.5 62.179688 C 64.808594 63.851562 63.707031 65.324219 62.300781 66.457031 C 60.84375 67.636719 58.996094 68.609375 56.726562 69.304688 C 54.457031 70.007812 51.757812 70.359375 48.632812 70.359375 L 26.320312 70.359375 L 26.320312 21.796875 L 49.917969 21.796875 C 54.28125 21.796875 57.777344 22.78125 60.390625 24.78125 C 63.027344 26.792969 64.339844 29.789062 64.339844 33.835938 C 64.339844 36.28125 63.742188 38.378906 62.542969 40.113281 C 61.347656 41.835938 59.628906 43.1875 57.410156 44.125 L 57.410156 44.28125 C 60.371094 44.90625 62.664062 46.3125 64.171875 48.496094 C 65.683594 50.683594 66.457031 53.445312 66.457031 56.777344 C 66.457031 58.644531 66.09375 60.417969 65.414062 62.078125 Z M 65.5 62.171875 "/></g><path style=" stroke:none;fill-rule:nonzero;fill:#543b79;fill-opacity:1;" d="M 55.871094 50.210938 C 54.449219 48.910156 52.453125 48.277344 49.871094 48.277344 L 34.878906 48.277344 L 34.878906 63.425781 L 49.914062 63.425781 C 52.480469 63.425781 54.492188 62.761719 55.914062 61.414062 C 57.335938 60.078125 58.0625 58.175781 58.0625 55.726562 C 58.039062 53.332031 57.335938 51.480469 55.914062 50.210938 Z M 55.871094 50.210938 "/><path style=" stroke:none;fill-rule:nonzero;fill:#543b79;fill-opacity:1;" d="M 53.777344 40.417969 L 53.789062 40.417969 C 55.164062 39.253906 55.835938 37.585938 55.835938 35.410156 C 55.835938 32.96875 55.230469 31.234375 54 30.242188 C 52.777344 29.253906 51.015625 28.738281 48.699219 28.738281 L 34.824219 28.738281 L 34.824219 42.140625 L 48.699219 42.140625 C 50.722656 42.140625 52.445312 41.550781 53.777344 40.417969 Z M 53.777344 40.417969 "/></g></svg>