<svg xmlns="http://www.w3.org/2000/svg" xmlns:xlink="http://www.w3.org/1999/xlink" width="120" zoomAndPan="magnify" viewBox="0 0 90 89.999999" height="120" preserveAspectRatio="xMidYMid meet" version="1.2"><defs><clipPath id="081331a4f1"><path d="M 6 83 L 7 83 L 7 83.992188 L 6 83.992188 Z M 6 83 "/></clipPath><clipPath id="80daa4004c"><path d="M 2.4375 5.992188 L 87.9375 5.992188 L 87.9375 82 L 2.4375 82 Z M 2.4375 5.992188 "/></clipPath></defs><g id="a307107eae"><g clip-rule="nonzero" clip-path="url(#081331a4f1)"><path style=" stroke:none;fill-rule:nonzero;fill:#000000;fill-opacity:1;" d="M 6.105469 83.875 L 6.101562 83.847656 L 6.097656 83.835938 Z M 6.105469 83.875 "/></g><path style=" stroke:none;fill-rule:nonzero;fill:#41b883;fill-opacity:1;" d="M 4.9375 8.636719 L 45.007812 77.460938 L 85.082031 8.636719 L 69.050781 8.636719 L 45.007812 49.933594 L 20.765625 8.636719 Z M 4.9375 8.636719 "/><path style=" stroke:none;fill-rule:nonzero;fill:#35495e;fill-opacity:1;" d="M 20.765625 8.636719 L 45.007812 50.132812 L 69.054688 8.636719 L 54.226562 8.636719 L 45.007812 24.597656 L 35.589844 8.636719 Z M 20.765625 8.636719 "/><g clip-rule="nonzero" clip-path="url(#80daa4004c)"><path style=" stroke:none;fill-rule:nonzero;fill:#000000;fill-opacity:1;" d="M 45.007812 81.875 C 44.046875 81.875 43.160156 81.359375 42.691406 80.527344 L 2.808594 9.957031 C 2.347656 9.136719 2.355469 8.128906 2.832031 7.320312 C 3.308594 6.507812 4.179688 6.007812 5.128906 6.007812 L 20.257812 6.007812 C 20.351562 6 20.457031 5.992188 20.558594 5.992188 L 35.59375 5.992188 C 36.546875 5.992188 37.421875 6.5 37.898438 7.320312 L 45.007812 19.628906 L 52.128906 7.320312 C 52.605469 6.5 53.484375 5.992188 54.433594 5.992188 L 69.46875 5.992188 C 69.582031 5.992188 69.691406 6 69.800781 6.011719 L 84.890625 6.011719 C 85.835938 6.011719 86.707031 6.515625 87.183594 7.320312 C 87.660156 8.132812 87.667969 9.140625 87.203125 9.957031 L 47.324219 80.527344 C 46.855469 81.359375 45.96875 81.875 45.007812 81.875 Z M 9.675781 11.304688 L 45.007812 73.832031 L 80.339844 11.308594 L 69.457031 11.308594 C 69.34375 11.308594 69.234375 11.300781 69.125 11.285156 L 55.972656 11.285156 L 47.3125 26.253906 C 46.835938 27.078125 45.957031 27.582031 45.007812 27.582031 C 44.054688 27.582031 43.179688 27.074219 42.703125 26.253906 L 34.054688 11.285156 L 20.859375 11.285156 C 20.765625 11.296875 20.660156 11.304688 20.558594 11.304688 Z M 9.675781 11.304688 "/></g></g></svg>